<?xml version="1.0" encoding="UTF-8"?>
<svg id="Layer_1" xmlns="http://www.w3.org/2000/svg" version="1.1" viewBox="0 0 758.6 144.8">
  <!-- Generator: Adobe Illustrator 30.0.0, SVG Export Plug-In . SVG Version: 2.1.1 Build 123)  -->
  <path d="M267.6,13.7h13.5v117.6h-13.3V43.8c0-1.5-.5-2.5-1.4-2.8-1.3-.4-2.3.5-3.2,1.9,0,0,0,0,0,0l-38.2,56.1h-.7l-38.8-56.9c-.8-1-1.7-1.7-2.8-1.2-1,.5-1.2,1.6-1.2,3.1v87.3h-12.9V13.7h13.4l38.6,57.8c1.7,2.4,2.8,3.6,4.2,3.6s2.9-1.5,4.2-3.5l38.6-58M551.8,13.7h-13.3v117.6h13.3V13.7ZM316.5,131.3h-13.6l53.6-118.4h12.4l53.6,118.5h-14.3l-11.2-25.3h0c-2.3-5.2-2.9-5.8-6.5-5.8h-56.2c-3.3,0-4.1.6-6,4.8l-11.8,26.3ZM341,88.3h43.1c2.7,0,4.7-1.5,2.7-5.6,0-.1-21.6-48.5-21.8-48.9-.6-1.2-1.5-1.9-2.5-1.9s-1.7.8-2.4,1.9c0,0-20.1,44.9-21.8,48.7-1.7,3.8-.6,5.7,2.7,5.7ZM647.1,75c-1.5-2.2-1.7-2.7-1.7-4.3s1.6-3.3,2.1-4.1l42.8-53.1h-15.5l-32.7,40.6c-2.8,3.4-4.1,4.8-6,4.8s-3.2-1.6-5.6-4.8l-32.9-40.6h-15.6l42.6,53.2c.9,1.2,2.1,2.4,2.1,4.2s-.3,2.1-1.4,3.7l-45,56.5h15.3l34.4-43.2c3.2-3.9,4.3-4.7,5.9-4.7s3.2,1.6,5.8,4.9l34.5,43h15.8l-44.8-56.2ZM758.6,37.5c0-6.8-2.4-12.6-7.2-17.4-4.8-4.8-10.6-7.2-17.4-7.2s-12.5,2.4-17.3,7.2c-4.8,4.8-7.2,10.6-7.2,17.4s2.4,12.6,7.1,17.5c4.8,4.8,10.6,7.2,17.4,7.2s12.6-2.4,17.4-7.2c4.8-4.8,7.2-10.6,7.2-17.5ZM733.9,16.3c5.9,0,10.8,2.1,15,6.2,4.1,4.1,6.2,9.1,6.2,15s-2.1,10.9-6.2,15.1-9.1,6.2-15,6.2-10.9-2.1-15-6.2c-4.1-4.2-6.1-9.2-6.1-15.1s2.1-10.8,6.2-15c4.1-4.2,9.1-6.2,14.9-6.2ZM724,23.9v27h4.8v-10.6h3.8c2.5,0,4.3.3,5.3.9,1.7,1,2.6,3.1,2.6,6.2v3c.1.1.1.2.2.3,0,0,0,.2,0,.3h4.4l-.2-.3c-.1-.2-.2-.7-.2-1.4,0-.7,0-1.4,0-2v-2c0-1.4-.5-2.8-1.5-4.2-1-1.4-2.5-2.3-4.6-2.6,1.7-.3,3-.7,3.9-1.3,1.8-1.1,2.6-2.9,2.6-5.3s-1.4-5.7-4.2-6.8c-1.6-.7-4-1-7.4-1,0,0-9.4,0-9.4,0ZM740.4,32.2c0,2.1-.9,3.5-2.8,4.2-1,.4-2.5.6-4.5.6h-4.3v-9.8h4.1c2.6,0,4.6.3,5.8,1,1.2.7,1.8,2,1.8,4ZM456.7,30.6v100.7h13.5V30.6c0-3.2,1.1-4.6,4.7-4.6h34.7v-12.3h-92.2v12.3h34.8c3.4,0,4.6,1.6,4.6,4.6ZM0,135.6V9.1C0,4.1,4.1,0,9.1,0h110.9c5,0,9.1,4.1,9.1,9.2v126.4c0,5.1-4.1,9.2-9.1,9.2H9.1c-5.1,0-9.1-4.1-9.1-9.2ZM81.1,50.6c-7.4,0-11.7,11.6-11.7,11.6l-3.2,7.8,6.7,17,6.4-16s.2-.6.8-.6.8.6.8.6c0,0,8,23.9,8.1,24.1,0,.2-.1.9-.7.9h-5.3l-1.4,12.5h16.3c1.5,0,1.9-1.2,1.9-1.2l4.4-7.3s.6-1.1.2-2.5c-.4-1.1-13.9-38.8-16.5-45.8-.3-.7-.6-1.2-1.9-1.2-1.1,0-2.8,0-4.6,0ZM48.3,41.6s.6.3,1-.4c.5-1,.6-3,3.1-3.3,3.5-.3,2.9,8.4-.8,10.7-.2.1-.4.5,0,.6,1.9.3,6.2,1.7,9.6,9.3,1.8,4.1,3.4,8.5,3.4,8.5,0,0,1.6-4.3,3.4-8.5,3.2-7.2,7.2-8.9,9.3-9.3.8-.1.7-.5.4-.7-5-4-1.8-11.7-8.4-15.2-4.1-1.8-14.3.2-14.3.2,0,0-3.2.6-4.3.9-4.6.6-2.4,7.2-2.4,7.2ZM25.1,99.9l4.4,7.5s.5,1.2,1.8,1.2h29.6l-4.8-12.6h-14.9c-.6,0-1.1-.5-.9-1.2.2-.6,8-23.4,8-23.4,0,0,.3-1,1-1s1,1,1,1l14.2,37.1h13.8l-18.7-46.5s-4.3-11.6-11.7-11.6-3.6,0-4.8,0c-1.2,0-1.5.4-1.8,1.2-2.5,7.1-16,44.8-16.4,45.9-.5,1.2,0,2.2,0,2.2Z"/>
</svg>